<?xml version="1.0" encoding="UTF-8"?><svg id="Layer_2" xmlns="http://www.w3.org/2000/svg" xmlns:xlink="http://www.w3.org/1999/xlink" viewBox="0 0 222.7 49.24"><defs><style>.cls-1{fill:url(#linear-gradient);}.cls-2{fill:#1d88f2;}.cls-3{fill:url(#linear-gradient-3);}.cls-4{fill:url(#linear-gradient-2);opacity:.7;}</style><linearGradient id="linear-gradient" x1="14.85" y1="45.13" x2="36.4" y2="11.62" gradientUnits="userSpaceOnUse"><stop offset="0" stop-color="#9a60fe"/><stop offset=".5" stop-color="#00a2ff"/><stop offset="1" stop-color="#21e6d0"/></linearGradient><linearGradient id="linear-gradient-2" x1="3.78" y1="40.2" x2="29.46" y2="5.09" xlink:href="#linear-gradient"/><linearGradient id="linear-gradient-3" x1="182.79" y1="37.63" x2="219.15" y2="8.81" xlink:href="#linear-gradient"/></defs><g id="Layer_1-2"><g><g><path class="cls-1" d="m42.39,36.61l-6.63-3.83,6.63-3.83v7.66Zm-6.78-19.9l6.63,3.83-6.63,3.83v-7.66Zm0,8.16l6.63,3.83-6.63,3.83v-7.66Zm6.78,3.58l-6.63-3.83,6.63-3.83v7.66Zm0-8.16l-6.63-3.83,6.63-3.83v7.66Zm-6.78-4.08v-7.66l6.63,3.83-6.63,3.83Zm0,24.47v-7.66l6.63,3.83-6.63,3.83Zm6.99-28.43l-7.06-4.08-7.07-4.08L21.41.02s-.05-.02-.07-.02v49.24s.05,0,.07-.02l7.06-4.08,7.07-4.08,7.06-4.08s.07-.07.07-.12V12.38c0-.05-.03-.1-.07-.12ZM21.48.4l6.63,3.83-.83.48-5.8,3.35V.4Zm0,16.32l6.63,3.83-6.63,3.83v-7.66Zm0,16.31l6.63,3.83-6.63,3.83v-7.66Zm0,15.82v-7.66l6.63,3.83-6.63,3.83Zm6.78-4.08l-6.63-3.83,6.63-3.83v7.66Zm0-8.16l-6.63-3.83,6.63-3.83v7.66Zm0-16.31l-6.63-3.83,6.63-3.83v7.66Zm0-8.16l-6.63-3.83,6.63-3.83v7.66Zm.29-7.66l6.63,3.83-6.63,3.83v-7.66Zm0,8.16l6.63,3.83-6.63,3.83v-7.66Zm0,32.13v-7.66l6.63,3.83-6.63,3.83Zm6.78-4.08l-6.63-3.83,6.63-3.83v7.66Zm0-24.47l-6.63-3.83,6.63-3.83v7.66Z"/><path class="cls-4" d="m21.27.02l-7.07,4.08-7.06,4.08L.07,12.26s-.07.07-.07.12v24.48c0,.05.03.1.07.12l7.06,4.08,7.06,4.08,7.07,4.08s.05.02.07.02V0s-.05,0-.07.02ZM.29,12.63l6.63,3.83L.29,20.29v-7.66Zm0,8.16l6.63,3.83L.29,28.45v-7.66Zm0,8.15l6.63,3.83-6.63,3.83v-7.66Zm6.77,11.74l-6.63-3.83,6.63-3.83v7.66Zm0-8.16L.43,28.7l6.63-3.83v7.66Zm0-8.15L.43,20.54l6.63-3.83v7.66Zm0-8.16L.43,12.38l6.63-3.83v7.66Zm.29-7.66l6.63,3.83-6.63,3.83v-7.66Zm0,24.47l6.63,3.83-6.63,3.83v-7.66Zm6.78,11.74l-6.63-3.83,6.63-3.83v7.66Zm0-24.47l-6.63-3.83,6.63-3.83v7.66Zm0-8.16l-6.63-3.83,6.63-3.83v7.66Zm.29-7.66l6.63,3.83-6.63,3.83v-7.66Zm0,8.16l6.63,3.83-6.63,3.83v-7.66Zm0,16.31l6.63,3.83-6.63,3.83v-7.66Zm0,8.16l6.63,3.83-6.63,3.83v-7.66Zm6.78,11.74l-6.63-3.83,6.63-3.83v7.66Zm0-8.16l-6.63-3.83,6.63-3.83v7.66Zm0-16.31l-6.63-3.83,6.63-3.83v7.66Zm0-16.32l-5.74-3.31-.9-.52L21.2.4v7.66Z"/></g><g><path class="cls-2" d="m77.83,34.51h-3.74v-12.13l-5.82,12.13h-4.38l-5.82-12.13v12.13h-3.74V15.23l4.27.03,7.48,15.87,7.48-15.9h4.27v19.28Z"/><path class="cls-2" d="m99.02,15.23c1.16,0,2.16.42,2.99,1.25.83.83,1.25,1.83,1.25,2.99v10.8c0,1.16-.41,2.16-1.25,2.99-.83.83-1.83,1.25-2.99,1.25h-12.52c-1.18,0-2.18-.42-3.01-1.25-.82-.83-1.23-1.83-1.23-2.99v-10.8c0-1.16.41-2.16,1.23-2.99.82-.83,1.82-1.25,3.01-1.25h12.52Zm.78,14.07v-8.86c0-.48-.17-.89-.51-1.23-.34-.34-.75-.51-1.23-.51h-10.61c-.48,0-.89.17-1.23.51-.34.34-.51.75-.51,1.23v8.86c0,.48.17.89.51,1.23.34.34.75.51,1.23.51h10.61c.48,0,.89-.17,1.23-.51.34-.34.51-.75.51-1.23Z"/><path class="cls-2" d="m123.45,15.23c1.13,0,2.09.4,2.88,1.2.79.8,1.19,1.76,1.19,2.87v11.14c0,1.13-.4,2.09-1.19,2.88s-1.75,1.19-2.88,1.19h-15.76V15.23h15.76Zm.61,14.1v-8.89c0-.48-.17-.89-.51-1.23-.34-.34-.75-.51-1.23-.51h-11.16v12.35h11.16c.48,0,.89-.17,1.23-.5.34-.33.51-.74.51-1.22Z"/><path class="cls-2" d="m148.91,18.41h-13.16v4.71h10.86v3.49h-10.86v4.74h13.16v3.16h-16.95V15.23h16.95v3.19Z"/><path class="cls-2" d="m153.37,15.23h3.74v15.82h12.27v3.46h-16.01V15.23Z"/><path class="cls-3" d="m178.08,34.53c-.98,0-1.75-.32-2.42-1-.68-.69-1-1.46-1-2.42v-12.48c0-.96.32-1.73,1-2.42.68-.68,1.45-1,2.42-1h14.46c.96,0,1.72.32,2.41,1.01.69.69,1.01,1.45,1.01,2.41v12.48c0,.96-.32,1.73-1.01,2.41-.69.69-1.45,1.01-2.41,1.01h-14.46Zm1.09-18.27c-.94,0-1.97.22-2.64.89-.67.67-.85,1.66-.85,2.61v10.24c0,.94.19,1.97.86,2.64.67.67,1.68.85,2.63.85h12.26c.94,0,1.91-.23,2.58-.9.67-.67.92-1.65.92-2.6v-10.24c0-.94-.26-1.92-.93-2.59-.67-.67-1.62-.9-2.56-.9h-12.26Zm23.28,18.27l17.6-.03c.74,0,1.33-.25,1.86-.79.54-.55.79-1.16.79-1.92v-5.26c0-.61-.2-1.1-.64-1.53s-.92-.64-1.53-.64h-15.23c-.57,0-1.22-.12-1.64-.52-.45-.42-.57-.9-.57-1.52v-3.17c0-.79.11-1.66.67-2.2.55-.53,1.44-.65,2.21-.65h15.62v-1.08h-16.84c-.76,0-1.36.25-1.89.79-.54.55-.79,1.16-.79,1.92v5.12c0,.61.2,1.22.64,1.66.44.44.92.64,1.53.64h15.2c.62,0,1.25.16,1.68.61.39.43.54,1.04.54,1.6v3.18c0,.66-.11,1.22-.49,1.73-.55.72-1.16.99-2.04.99l-16.67.03v1.05Z"/></g></g></g></svg>